<?xml version="1.0" encoding="UTF-8"?>
<svg id="logo" xmlns="http://www.w3.org/2000/svg" version="1.1" viewBox="0 0 566.86 226.92">
  <!-- Generator: Adobe Illustrator 29.8.1, SVG Export Plug-In . SVG Version: 2.1.1 Build 2)  -->
  <g>
    <g>
      <path d="M483.9,162.22c0-11.08,4.31-21.5,12.15-29.33,7.83-7.83,18.25-12.15,29.33-12.15s21.5,4.32,29.33,12.15,12.15,18.25,12.15,29.33-4.31,21.5-12.15,29.33c-7.83,7.83-18.25,12.15-29.33,12.15-8.4,0-16.42-2.48-23.22-7.09v30.31h-18.26v-64.7h0ZM502.16,162.22c0,6.2,2.41,12.03,6.8,16.42s10.22,6.8,16.42,6.8,12.03-2.42,16.42-6.8c4.39-4.39,6.8-10.22,6.8-16.42s-2.41-12.03-6.8-16.42-10.22-6.8-16.42-6.8-12.03,2.41-16.42,6.8c-4.39,4.39-6.8,10.22-6.8,16.42Z"/>
      <path d="M181.34,132.89c-7.83-7.83-18.25-12.15-29.33-12.15s-21.48,4.31-29.33,12.15l-.12.12-12.53,12.59c-.74-13.56-6.37-26.2-16.04-35.87-10.4-10.4-24.22-16.13-38.93-16.13s-28.53,5.73-38.93,16.12C5.73,120.12,0,133.95,0,148.66s5.73,28.53,16.12,38.93c10.4,10.4,24.22,16.13,38.93,16.13s28.53-5.73,38.93-16.13h.01l16.54-16.62v55.95h18.26v-30.32c6.8,4.61,14.82,7.1,23.22,7.1,11.08,0,21.5-4.32,29.33-12.15,7.83-7.83,12.15-18.25,12.15-29.33s-4.31-21.5-12.15-29.33h0ZM29.03,174.68c-6.95-6.95-10.78-16.19-10.78-26.02s3.83-19.07,10.78-26.02c6.95-6.95,16.19-10.78,26.02-10.78s19.07,3.83,26.02,10.78,10.78,16.19,10.78,26.02-3.83,19.07-10.78,26.02h0c-6.95,6.95-16.19,10.78-26.02,10.78s-19.07-3.83-26.02-10.78h0ZM168.43,178.64c-4.38,4.39-10.22,6.8-16.42,6.8s-12.03-2.42-16.42-6.8c-4.39-4.39-6.8-10.22-6.8-16.42s2.39-11.97,6.73-16.34l.07-.07c4.38-4.39,10.22-6.8,16.42-6.8s12.03,2.41,16.42,6.8c4.39,4.38,6.8,10.22,6.8,16.42s-2.41,12.03-6.8,16.42h0Z"/>
      <path d="M443.9,185.44c-6.2,0-12.03-2.42-16.42-6.8-2.13-2.13-3.8-4.6-4.95-7.29h45.09l17-17c-1.54-8.08-5.46-15.51-11.4-21.46-7.84-7.83-18.25-12.15-29.33-12.15s-21.49,4.32-29.33,12.15c-7.83,7.84-12.15,18.25-12.15,29.33s4.31,21.49,12.15,29.33c7.83,7.83,18.25,12.15,29.33,12.15s21.49-4.31,29.33-12.15l-12.91-12.91c-4.39,4.39-10.22,6.8-16.42,6.8h.01ZM427.37,145.8c4.39-4.39,10.22-6.8,16.42-6.8s12.03,2.41,16.42,6.8c2.13,2.13,3.79,4.6,4.95,7.29h-42.73c1.15-2.69,2.81-5.16,4.94-7.29h0Z"/>
    </g>
    <g>
      <rect x="158.83" width="45.63" height="45.63"/>
      <rect x="75.99" y="34.99" width="34.84" height="34.84"/>
      <rect x="139.05" y="67.1" width="26.52" height="26.52"/>
    </g>
  </g>
  <path d="M355.62,132.89c-7.83-7.83-18.25-12.15-29.33-12.15s-21.48,4.31-29.33,12.15h0l-.09.09-45.46,45.64c-4.39,4.39-10.22,6.8-16.42,6.8s-12.03-2.42-16.42-6.8c-4.39-4.39-6.8-10.22-6.8-16.42s2.42-12.03,6.8-16.42,10.22-6.8,16.42-6.8,12.03,2.41,16.42,6.8c.83.83,1.6,1.73,2.3,2.68h0l12.96-13.01c-.75-.89-1.53-1.76-2.35-2.58-7.83-7.83-18.25-12.15-29.33-12.15s-21.49,4.32-29.33,12.15c-7.83,7.84-12.15,18.25-12.15,29.33s4.31,21.49,12.15,29.33,18.25,12.15,29.33,12.15,21.49-4.31,29.34-12.16l21.26-21.34c1.56,8.04,5.47,15.43,11.39,21.35,7.83,7.83,18.25,12.15,29.33,12.15s21.5-4.32,29.33-12.15c7.83-7.83,12.15-18.25,12.15-29.33s-4.31-21.5-12.15-29.33h0l-.02.02ZM342.7,178.64c-4.39,4.39-10.22,6.8-16.42,6.8s-12.03-2.42-16.42-6.8c-4.39-4.39-6.8-10.22-6.8-16.42s2.39-11.97,6.73-16.35l.07-.07c4.39-4.38,10.22-6.8,16.42-6.8s12.03,2.41,16.42,6.8c4.39,4.38,6.8,10.22,6.8,16.42s-2.42,12.03-6.8,16.42h0Z"/>
</svg>